<svg width="255" height="288" viewBox="0 0 255 288" fill="none" xmlns="http://www.w3.org/2000/svg">
<path d="M129.81 1.71631C109.31 7.71767 31.1435 88.0515 1.81017 124.718C-1.18983 133.218 18.3102 140.885 33.8102 143.718C8.80957 190.718 31.8096 248.718 50.8096 252.218C27.8096 270.718 50.8096 281.718 59.8099 261.217C49.3099 289.718 82.8096 282.218 85.3099 261.217C82.8096 297.718 107.31 281.718 109.31 262.717C120.31 301.218 138.864 279.22 137.364 263.718C148.864 301.718 171.81 283.22 160.31 264.718C182.81 298.718 188.809 272.218 175.31 261.217C192.309 275.071 207.81 261.217 186.81 253.717C237.21 244.917 225.81 181.717 213.81 151.217C213.81 151.217 245.31 151.217 252.81 143.716C255.571 140.955 152.295 -4.86636 129.81 1.71631Z" fill="url(#paint0_linear_689_306)"/>
<path d="M129.81 1.71631C109.31 7.71767 31.1435 88.0515 1.81017 124.718C-1.18983 133.218 18.3102 140.885 33.8102 143.718C8.80957 190.718 31.8096 248.718 50.8096 252.218C27.8096 270.718 50.8096 281.718 59.8099 261.217C49.3099 289.718 82.8096 282.218 85.3099 261.217C82.8096 297.718 107.31 281.718 109.31 262.717C120.31 301.218 138.864 279.22 137.364 263.718C148.864 301.718 171.81 283.22 160.31 264.718C182.81 298.718 188.809 272.218 175.31 261.217C192.309 275.071 207.81 261.217 186.81 253.717C237.21 244.917 225.81 181.717 213.81 151.217C213.81 151.217 245.31 151.217 252.81 143.716C255.571 140.955 152.295 -4.86636 129.81 1.71631Z" fill="#F8F5E9" fill-opacity="0.25"/>
<path d="M129.81 1.71631C109.31 7.71767 31.1435 88.0515 1.81017 124.718C-1.18983 133.218 18.3102 140.885 33.8102 143.718C8.80957 190.718 31.8096 248.718 50.8096 252.218C27.8096 270.718 50.8096 281.718 59.8099 261.217C49.3099 289.718 82.8096 282.218 85.3099 261.217C82.8096 297.718 107.31 281.718 109.31 262.717C120.31 301.218 138.864 279.22 137.364 263.718C148.864 301.718 171.81 283.22 160.31 264.718C182.81 298.718 188.809 272.218 175.31 261.217C192.309 275.071 207.81 261.217 186.81 253.717C237.21 244.917 225.81 181.717 213.81 151.217C213.81 151.217 245.31 151.217 252.81 143.716C255.571 140.955 152.295 -4.86636 129.81 1.71631Z" stroke="#0A3474" stroke-width="3"/>
<path d="M56.3096 160.718C56.3096 155.718 60.7096 145.718 74.3096 145.718C90.3096 145.718 91.3096 156.218 91.3096 159.718C91.3096 163.218 90.8096 173.218 73.8096 173.218C60.2096 173.218 56.3096 164.718 56.3096 160.718Z" fill="#DF8D99" fill-opacity="0.25"/>
<path d="M131.81 160.491C131.81 155.4 136.461 145.218 150.838 145.218C167.752 145.218 168.81 155.909 168.81 159.473C168.81 163.036 168.281 173.218 150.31 173.218C135.932 173.218 131.81 164.564 131.81 160.491Z" fill="#DF8D99" fill-opacity="0.25"/>
<path d="M133.625 170.236C143.379 236.758 78.3833 225.898 90.3863 170.074C90.6068 169.048 91.6108 168.355 92.6503 168.496C97.8152 169.195 103.24 169.261 107.107 168.391C107.564 168.289 108.037 168.332 108.478 168.489C113.57 170.31 124.746 169.405 131.346 168.506C132.434 168.358 133.465 169.149 133.625 170.236Z" fill="#DF8D99" stroke="#0A3474" stroke-width="3"/>
<path d="M97.5418 145.95C98.5181 144.974 100.101 144.974 101.077 145.95C102.054 146.927 102.054 148.51 101.077 149.486C100.101 150.462 98.5181 150.462 97.5418 149.486C96.5655 148.51 96.5655 146.927 97.5418 145.95Z" fill="#0A3474" stroke="#0A3474" stroke-width="3"/>
<path d="M122.542 146.95C123.518 145.974 125.101 145.974 126.077 146.95C127.054 147.927 127.054 149.51 126.077 150.486C125.101 151.462 123.518 151.462 122.542 150.486C121.565 149.51 121.565 147.927 122.542 146.95Z" fill="#0A3474" stroke="#0A3474" stroke-width="3"/>
<path d="M74.8096 154.718V162.218" stroke="#DF8D99" stroke-width="4" stroke-linecap="round"/>
<path d="M146.81 154.218V161.718" stroke="#DF8D99" stroke-width="4" stroke-linecap="round"/>
<path d="M68.3096 155.218L66.8096 162.218" stroke="#DF8D99" stroke-width="4" stroke-linecap="round"/>
<path d="M153.81 154.218L156.31 160.718" stroke="#DF8D99" stroke-width="4" stroke-linecap="round"/>
<path d="M180.528 86.2183C177.056 86.2183 175.603 83.959 174.957 81.3096C174.129 77.9165 176.908 74.1577 180.383 74.219C183.533 74.2746 185.81 77.4916 185.81 80.2187C185.81 82.9459 184.87 86.2183 180.528 86.2183Z" fill="#F8F5E9"/>
<path d="M188.929 94.2183C187.035 94.2183 186.242 93.0886 185.89 91.7639C185.439 90.0674 186.954 88.188 188.85 88.2186C190.568 88.2464 191.81 89.8549 191.81 91.2185C191.81 92.5821 191.297 94.2183 188.929 94.2183Z" fill="#F8F5E9"/>
<defs>
<linearGradient id="paint0_linear_689_306" x1="135.364" y1="-85.5" x2="126.864" y2="510.5" gradientUnits="userSpaceOnUse">
<stop offset="0.158654" stop-color="#F8F5E9"/>
<stop offset="0.427885" stop-color="#C2E8F3"/>
<stop offset="1" stop-color="#928DDF"/>
</linearGradient>
</defs>
</svg>
